<?xml version="1.0" standalone="no"?>
<!DOCTYPE svg PUBLIC "-//W3C//DTD SVG 20010904//EN"
 "http://www.w3.org/TR/2001/REC-SVG-20010904/DTD/svg10.dtd">
<svg version="1.0" xmlns="http://www.w3.org/2000/svg"
 width="348.000000pt" height="117.000000pt" viewBox="0 0 348.000000 117.000000"
 preserveAspectRatio="xMidYMid meet">

<g transform="translate(0.000000,117.000000) scale(0.100000,-0.100000)"
fill="#000000" stroke="none">
<path d="M596 1008 c-26 -40 -29 -81 -10 -124 l19 -39 3 58 c4 71 22 66 22 -6
0 -50 1 -51 16 -29 25 36 27 83 6 121 -24 44 -37 48 -56 19z"/>
<path d="M420 877 c0 -20 8 -41 18 -50 22 -20 39 -23 25 -4 -6 6 -13 21 -16
32 -5 15 0 12 19 -10 l26 -30 -7 30 c-6 27 -39 64 -57 65 -5 0 -8 -15 -8 -33z"/>
<path d="M775 885 c-14 -13 -25 -34 -25 -47 0 -22 1 -22 26 7 l25 30 -16 -32
c-17 -36 -8 -43 18 -15 19 20 23 82 7 82 -6 0 -22 -11 -35 -25z"/>
<path d="M215 800 c-9 -15 30 -74 57 -87 34 -17 78 -25 78 -14 0 5 -16 19 -35
31 -53 33 -42 44 16 15 l51 -26 -18 30 c-10 17 -32 37 -50 46 -37 17 -90 20
-99 5z"/>
<path d="M923 795 c-17 -7 -39 -28 -48 -45 l-16 -31 51 26 c60 30 66 20 10
-16 -45 -30 -89 -28 -98 3 -3 14 -12 18 -31 16 -25 -3 -26 -5 -29 -80 -3 -83
-18 -102 -40 -53 -6 14 -16 25 -22 25 -13 0 -13 -6 1 -29 17 -26 4 -63 -33
-100 -41 -40 -62 -39 -105 4 -29 29 -34 40 -31 72 2 31 7 39 26 41 13 2 32 -4
43 -14 10 -9 20 -15 22 -13 1 2 9 13 17 23 14 18 13 19 -2 13 -9 -3 -30 -1
-46 5 -25 10 -35 9 -56 -5 -14 -10 -26 -24 -26 -32 0 -8 -7 -15 -15 -15 -11 0
-15 18 -17 78 -3 76 -3 77 -31 80 -22 3 -30 -1 -34 -17 -3 -12 -14 -21 -25
-21 -11 0 -22 -9 -25 -20 -3 -11 -13 -20 -23 -20 -20 0 -30 -19 -30 -55 0 -14
-7 -25 -20 -28 -28 -7 -29 -67 -1 -67 15 0 20 -9 23 -42 6 -51 0 -59 -48 -67
-65 -11 -73 -72 -10 -79 22 -3 28 2 37 25 5 16 22 37 38 46 25 15 30 15 41 2
7 -8 18 -15 24 -15 6 0 17 -9 24 -20 10 -17 10 -20 -3 -20 -10 0 -15 -10 -15
-28 0 -15 -5 -33 -11 -39 -17 -17 -3 -43 21 -43 24 0 38 26 21 43 -6 6 -11 19
-11 29 0 15 8 18 45 18 l45 0 0 40 c0 22 -4 40 -10 40 -5 0 -10 -13 -10 -30 0
-16 -3 -30 -8 -30 -4 0 -6 20 -4 45 3 28 0 45 -7 45 -6 0 -11 -16 -11 -35 0
-24 -5 -35 -15 -35 -13 0 -15 27 -15 180 0 153 2 180 15 180 13 0 15 -21 15
-130 0 -80 4 -130 10 -130 6 0 10 11 10 25 0 36 43 33 87 -5 42 -38 60 -38
103 0 20 16 47 29 63 30 27 0 27 -1 27 -61 0 -50 -3 -60 -15 -55 -12 4 -15 -3
-15 -34 l0 -40 45 0 c38 0 45 -3 45 -19 0 -11 -4 -23 -10 -26 -16 -10 -12 -42
7 -49 9 -4 23 0 32 9 13 12 13 19 3 35 -6 11 -12 31 -12 45 0 19 -5 25 -22 26
-13 0 -17 3 -10 6 6 2 12 11 12 19 0 8 9 14 21 14 13 0 23 8 26 21 6 21 6 21
25 -2 10 -13 25 -39 33 -56 14 -33 28 -39 59 -27 19 7 21 45 4 62 -7 7 -22 12
-34 12 -31 0 -41 19 -36 72 3 39 8 47 25 50 15 2 23 11 25 30 3 22 -2 29 -22
34 -22 5 -26 12 -26 44 0 32 -4 39 -22 42 -35 5 -27 20 11 24 19 3 45 11 58
20 28 17 64 74 57 86 -8 12 -65 9 -101 -7z m-115 -242 c-3 -150 -5 -178 -18
-178 -13 0 -15 28 -18 178 -2 173 -2 177 18 177 20 0 20 -4 18 -177z m-398 2
c0 -122 -2 -145 -15 -145 -13 0 -15 22 -15 138 0 76 3 142 7 145 19 19 23 -5
23 -138z m445 -1 c0 -117 -2 -139 -15 -139 -12 0 -15 22 -18 129 -3 137 0 160
21 153 9 -3 12 -40 12 -143z m-495 1 c0 -87 -3 -105 -15 -105 -12 0 -15 18
-15 98 0 54 3 102 7 105 18 19 23 -2 23 -98z m542 0 c0 -82 -3 -101 -16 -103
-14 -3 -16 11 -16 96 0 54 3 102 7 106 19 19 26 -9 25 -99z m-592 0 c0 -8 -7
-15 -15 -15 -8 0 -15 7 -15 15 0 8 7 15 15 15 8 0 15 -7 15 -15z m204 0 c4
-10 -1 -15 -14 -15 -11 0 -20 7 -20 15 0 8 6 15 14 15 8 0 16 -7 20 -15z m246
0 c0 -8 -9 -15 -20 -15 -20 0 -26 11 -13 23 12 13 33 7 33 -8z m190 0 c0 -8
-7 -15 -15 -15 -8 0 -15 7 -15 15 0 8 7 15 15 15 8 0 15 -7 15 -15z m-685
-185 c-3 -5 -10 -10 -16 -10 -5 0 -9 5 -9 10 0 6 7 10 16 10 8 0 12 -4 9 -10z
m510 -12 c6 -4 2 -8 -7 -8 -10 0 -18 7 -18 17 0 9 3 12 8 7 4 -5 12 -12 17
-16z m195 2 c0 -5 -4 -10 -10 -10 -5 0 -10 5 -10 10 0 6 5 10 10 10 6 0 10 -4
10 -10z m-130 -94 c0 -3 -4 -8 -10 -11 -5 -3 -10 -1 -10 4 0 6 5 11 10 11 6 0
10 -2 10 -4z"/>
<path d="M1870 525 c0 -128 1 -135 20 -135 13 0 20 7 20 19 0 10 8 29 19 42
l19 23 21 -34 c11 -19 22 -39 24 -43 1 -5 15 -7 30 -5 l28 3 -35 50 c-20 27
-36 54 -36 59 0 6 14 25 32 43 l32 33 -31 0 c-24 0 -36 -8 -54 -35 -13 -19
-28 -33 -34 -32 -5 2 -11 36 -13 75 -3 64 -5 72 -22 72 -19 0 -20 -8 -20 -135z"/>
<path d="M1060 631 c0 -15 8 -21 33 -23 l32 -3 3 -107 c3 -107 3 -108 27 -108
24 0 24 1 27 108 l3 107 38 3 c29 3 37 7 37 23 0 18 -8 19 -100 19 -92 0 -100
-2 -100 -19z"/>
<path d="M2877 634 c-4 -4 -7 -16 -7 -26 0 -10 -7 -21 -15 -24 -8 -4 -15 -15
-15 -25 0 -10 7 -19 15 -19 12 0 15 -13 15 -58 0 -79 17 -97 83 -93 26 2 20
28 -8 35 -23 6 -25 11 -25 61 0 52 1 55 25 55 18 0 25 5 25 20 0 15 -7 20 -24
20 -19 0 -25 6 -28 27 -3 27 -26 41 -41 27z"/>
<path d="M1366 569 c-23 -18 -27 -18 -32 -5 -3 9 -15 16 -25 16 -17 0 -19 -8
-19 -95 0 -95 0 -95 25 -95 24 0 25 3 25 56 0 67 13 94 44 94 22 0 36 16 36
41 0 16 -26 10 -54 -12z"/>
<path d="M1480 581 c-44 -12 -31 -36 20 -36 33 0 45 -4 48 -16 2 -12 -7 -18
-34 -22 -63 -10 -89 -50 -64 -98 12 -22 68 -26 89 -6 11 10 14 10 18 0 3 -7
16 -13 29 -13 24 0 24 1 20 82 -4 70 -8 86 -26 100 -23 18 -56 21 -100 9z m80
-113 c0 -19 -13 -36 -30 -38 -30 -5 -40 0 -40 19 0 11 6 22 13 24 24 10 57 7
57 -5z"/>
<path d="M1714 580 c-57 -23 -74 -121 -29 -166 21 -21 33 -25 73 -22 34 2 47
7 47 18 0 10 -11 16 -35 17 -39 2 -60 24 -60 63 0 34 32 64 60 57 13 -3 24 1
30 13 8 14 5 19 -13 24 -29 8 -47 7 -73 -4z"/>
<path d="M2170 573 c-17 -12 -25 -13 -28 -5 -2 7 -12 12 -23 12 -17 0 -19 -8
-19 -95 0 -95 0 -95 25 -95 24 0 25 2 25 70 0 60 3 71 21 80 35 19 49 -3 49
-81 0 -67 1 -69 25 -69 24 0 25 2 25 70 0 60 3 71 21 80 35 19 49 -3 49 -81 0
-67 1 -69 25 -69 25 0 25 1 25 78 0 111 -35 150 -98 106 -20 -14 -24 -14 -44
0 -29 20 -48 20 -78 -1z"/>
<path d="M2490 581 c-44 -12 -31 -36 20 -36 33 0 45 -4 48 -16 2 -12 -7 -18
-34 -22 -63 -10 -89 -50 -64 -98 12 -22 68 -26 89 -6 11 10 14 10 18 0 3 -7
13 -13 24 -13 17 0 19 8 19 80 0 67 -3 83 -20 100 -20 20 -54 24 -100 11z m70
-125 c0 -14 -7 -25 -17 -28 -27 -7 -43 1 -43 22 0 19 13 28 43 29 11 1 17 -7
17 -23z"/>
<path d="M2703 580 c-12 -5 -25 -21 -29 -36 -6 -22 -2 -32 20 -51 15 -13 33
-23 40 -23 8 0 19 -6 25 -14 19 -23 -14 -42 -50 -29 -25 10 -31 9 -36 -4 -8
-21 14 -33 64 -33 46 0 73 19 73 53 0 32 -11 44 -53 62 -54 22 -45 64 10 44
14 -5 25 -3 33 6 22 26 -50 44 -97 25z"/>
<path d="M3050 577 c-54 -27 -66 -106 -24 -156 21 -26 33 -31 67 -31 23 0 48
4 56 9 22 14 2 33 -26 26 -26 -6 -73 17 -73 35 0 6 27 10 60 10 l60 0 0 35 c0
66 -60 102 -120 72z m75 -52 c0 -15 -8 -21 -29 -23 -37 -4 -54 11 -36 33 19
23 65 16 65 -10z"/>
<path d="M3303 568 c-20 -19 -23 -20 -29 -5 -3 9 -15 17 -25 17 -17 0 -19 -8
-19 -95 0 -95 0 -95 25 -95 24 0 25 3 25 56 0 68 13 94 45 94 14 0 25 4 25 9
0 5 3 16 6 25 9 24 -27 20 -53 -6z"/>
<path d="M570 355 c0 -30 -6 -64 -12 -75 -10 -16 -10 -23 5 -37 16 -16 18 -16
34 0 15 14 15 21 5 37 -6 11 -12 45 -12 75 0 30 -4 55 -10 55 -5 0 -10 -25
-10 -55z"/>
<path d="M650 355 c0 -30 -6 -64 -12 -75 -10 -16 -10 -23 5 -37 16 -16 18 -16
34 0 15 14 15 21 5 37 -6 11 -12 45 -12 75 0 30 -4 55 -10 55 -5 0 -10 -25
-10 -55z"/>
</g>
</svg>
