<?xml version="1.0" standalone="no"?>
<!DOCTYPE svg PUBLIC "-//W3C//DTD SVG 20010904//EN"
 "http://www.w3.org/TR/2001/REC-SVG-20010904/DTD/svg10.dtd">
<svg version="1.0" xmlns="http://www.w3.org/2000/svg"
 width="260.000000pt" height="280.000000pt" viewBox="0 0 260.000000 280.000000"
 preserveAspectRatio="xMidYMid meet">

<g transform="translate(0.000000,280.000000) scale(0.100000,-0.100000)"
fill="#000000" stroke="none">
<path d="M1356 2092 c19 -16 43 -34 88 -66 24 -16 18 -24 -59 -76 -27 -19 -51
-37 -53 -42 -9 -22 -68 -1 -140 51 -18 13 -35 21 -38 19 -2 -3 19 -19 47 -37
85 -56 91 -65 85 -146 -3 -38 -5 -71 -5 -73 -1 -2 -14 6 -30 17 -16 12 -34 21
-39 21 -6 0 -13 6 -15 13 -3 7 -6 5 -6 -5 -1 -18 84 -87 107 -88 15 0 122 70
122 80 0 19 -16 17 -49 -5 -55 -38 -61 -34 -61 43 0 53 4 73 18 85 35 31 137
95 144 91 5 -3 8 -34 8 -70 0 -36 4 -64 10 -64 12 0 14 160 2 175 -8 11 -38
31 -62 42 -8 4 -17 9 -20 13 -3 4 -21 14 -40 23 -33 16 -34 16 -14 -1z"/>
<path d="M1210 2080 c-9 -6 -10 -10 -3 -10 6 0 15 5 18 10 8 12 4 12 -15 0z"/>
<path d="M1110 1995 c0 -21 2 -24 14 -13 7 7 11 19 9 25 -9 22 -23 14 -23 -12z"/>
<path d="M1100 1880 c0 -5 5 -10 11 -10 5 0 7 5 4 10 -3 6 -8 10 -11 10 -2 0
-4 -4 -4 -10z"/>
<path d="M1386 1851 c-6 -9 187 -156 205 -156 28 0 3 26 -86 92 -104 75 -110
79 -119 64z"/>
<path d="M1170 1833 c-14 -10 -29 -21 -35 -25 -5 -5 -38 -29 -73 -55 -34 -25
-60 -48 -57 -51 3 -3 18 4 33 16 15 12 57 42 94 67 66 45 88 65 71 65 -5 0
-20 -8 -33 -17z"/>
<path d="M1635 1667 l-90 -62 -3 -82 c-2 -53 1 -83 8 -83 5 0 11 6 11 13 1 6
3 19 4 27 1 8 3 30 4 48 1 21 6 32 16 32 8 0 15 -4 15 -10 0 -5 7 -10 15 -10
8 0 15 -4 15 -10 0 -5 9 -10 20 -10 10 0 23 -6 27 -13 4 -8 17 -17 28 -20 19
-7 18 -6 -2 10 -11 10 -42 34 -67 53 -49 38 -52 44 -33 60 31 27 129 90 139
90 6 0 30 -11 52 -24 56 -32 104 -46 56 -15 -19 12 -48 32 -63 45 -16 13 -36
24 -45 24 -9 -1 -57 -29 -107 -63z"/>
<path d="M835 1710 c-3 -6 1 -7 9 -4 18 7 21 14 7 14 -6 0 -13 -4 -16 -10z"/>
<path d="M901 1688 c35 -31 62 -51 85 -64 34 -20 25 -38 -36 -79 -105 -69 -96
-67 -159 -28 -43 26 -49 28 -26 8 84 -72 80 -65 77 -144 -3 -52 -7 -71 -16
-68 -7 3 -44 26 -84 51 l-72 47 -2 67 -2 67 -3 -60 c-5 -71 2 -105 21 -105 8
0 16 -3 18 -8 5 -12 142 -102 155 -102 21 0 113 62 113 76 0 19 -5 18 -54 -11
l-43 -25 -6 67 c-5 71 2 94 37 113 47 25 67 38 85 54 32 29 46 16 46 -47 0
-84 20 -69 23 18 3 89 5 87 -105 151 -43 24 -66 34 -52 22z"/>
<path d="M794 1685 c-10 -8 -14 -15 -8 -15 6 0 17 7 24 15 16 19 9 19 -16 0z"/>
<path d="M675 1595 c-3 -8 -7 -22 -10 -30 -4 -13 -1 -13 16 -5 15 9 18 15 10
24 -6 7 -8 16 -4 19 3 4 3 7 -1 7 -3 0 -9 -7 -11 -15z"/>
<path d="M950 1430 c0 -14 186 -150 205 -150 28 0 15 17 -47 61 -35 23 -65 45
-68 48 -13 14 -70 51 -80 51 -5 0 -10 -4 -10 -10z"/>
<path d="M1599 1407 c-84 -58 -139 -100 -135 -105 3 -2 29 15 60 37 30 23 57
41 60 41 3 0 20 14 38 30 41 38 35 37 -23 -3z"/>
<path d="M1193 1257 c-51 -34 -94 -66 -96 -72 -2 -5 -1 -51 1 -102 l4 -92 36
-21 37 -21 -27 26 c-26 24 -28 32 -28 100 0 41 3 75 6 75 7 0 67 -32 74 -40 3
-3 26 -17 52 -30 30 -16 43 -27 35 -32 -8 -5 -8 -8 -1 -8 18 0 37 27 24 35 -5
3 -14 3 -20 0 -5 -3 -24 8 -41 25 -18 16 -37 30 -44 30 -13 0 -55 42 -55 54 0
13 97 85 133 99 17 7 67 -8 77 -22 3 -5 25 -18 50 -31 l45 -23 -28 27 c-15 14
-32 26 -37 26 -4 0 -10 4 -12 8 -5 13 -65 52 -80 51 -7 0 -54 -28 -105 -62z"/>
</g>
</svg>
